<svg width="51" height="36" viewBox="0 0 51 36" fill="none" xmlns="http://www.w3.org/2000/svg">
<g clip-path="url(#clip0_4492_2245)">
<path d="M13.3304 1.27991C13.3305 1.11894 13.2956 0.959921 13.2281 0.81409C13.1607 0.668259 13.0623 0.539178 12.94 0.435974C12.6955 0.204629 12.372 0.0774965 12.0369 0.0810484C11.8041 0.0772635 11.5749 0.140157 11.3759 0.262455C11.1565 0.403586 10.9898 0.614484 10.9022 0.861885L6.73811 10.2109L2.56358 0.843482C2.47212 0.610591 2.31131 0.412144 2.10338 0.275565C1.89545 0.138986 1.65066 0.071016 1.40284 0.0810484C1.04782 0.0792877 0.703743 0.205087 0.432077 0.435974C0.296619 0.537555 0.186866 0.670063 0.111782 0.822674C0.0366982 0.975286 -0.001588 1.14367 5.04572e-05 1.31409C-0.00140097 1.48145 0.0351001 1.64693 0.106756 1.79784L5.3119 12.9767L3.45366 16.9834C3.37544 17.1547 3.32955 17.3393 3.31833 17.5276C3.316 17.6855 3.35033 17.8417 3.41858 17.9837C3.48683 18.1257 3.5871 18.2495 3.71132 18.3453C3.95611 18.555 4.2674 18.6689 4.58838 18.666C4.82393 18.665 5.05392 18.5936 5.24944 18.4609C5.46287 18.3194 5.6289 18.1159 5.72571 17.8773L13.2237 1.79784C13.2947 1.63461 13.331 1.45818 13.3304 1.27991Z" fill="#2963A3"/>
<path d="M39.5071 12.5118C39.4991 12.6807 39.5263 12.8493 39.5868 13.0069C39.6473 13.1645 39.7399 13.3075 39.8585 13.4267C39.982 13.5416 40.1267 13.6306 40.2844 13.6888C40.442 13.747 40.6095 13.7732 40.7772 13.7659C41.1428 13.7818 41.5002 13.6536 41.774 13.4083C41.9002 13.2915 42.0001 13.1486 42.067 12.9894C42.1339 12.8302 42.1662 12.6584 42.1618 12.4855V1.3908C42.1708 1.21084 42.1431 1.03093 42.0804 0.862232C42.0178 0.693535 41.9214 0.539656 41.7974 0.410152C41.5163 0.179307 41.1644 0.0543847 40.8022 0.0567829C40.4399 0.0591811 40.0897 0.188751 39.8116 0.423298C39.6856 0.549219 39.587 0.700291 39.522 0.866874C39.457 1.03346 39.4271 1.21189 39.4343 1.3908V7.79787C39.4343 8.94064 39.115 9.85819 38.4765 10.5505C38.1492 10.8971 37.7523 11.1689 37.3123 11.3476C36.8724 11.5262 36.3997 11.6077 35.926 11.5864C35.029 11.5864 34.3636 11.3322 33.9298 10.8239C33.4961 10.3157 33.28 9.52693 33.2818 8.45777V1.3908C33.2908 1.21084 33.2631 1.03093 33.2005 0.862232C33.1378 0.693535 33.0414 0.539656 32.9174 0.410152C32.7839 0.287248 32.6274 0.192539 32.4571 0.131589C32.2868 0.0706386 32.1062 0.0446762 31.9258 0.0552264C31.7423 0.044194 31.5584 0.0698661 31.3846 0.130771C31.2109 0.191677 31.0508 0.286617 30.9134 0.410152C30.7882 0.538814 30.6911 0.692558 30.6284 0.861466C30.5656 1.03037 30.5386 1.2107 30.5491 1.3908V8.48932C30.5491 12.0508 32.1505 13.8316 35.3534 13.8316C36.2042 13.8433 37.0441 13.6371 37.7946 13.2322C38.523 12.833 39.1186 12.2258 39.5071 11.4865V12.5118Z" fill="#2963A3"/>
<path d="M15.3551 33.8921L14.5977 33.8369C13.8794 33.7826 13.3442 33.5556 12.992 33.156C12.6432 32.7564 12.4714 32.128 12.4714 31.2736V24.6772H15.1339C15.4483 24.7012 15.7604 24.6076 16.0109 24.4143C16.1171 24.3142 16.2 24.1915 16.2536 24.0551C16.3071 23.9187 16.33 23.772 16.3207 23.6256C16.329 23.4793 16.3055 23.3329 16.2521 23.1967C16.1986 23.0604 16.1163 22.9376 16.0109 22.8369C15.7647 22.6333 15.4515 22.531 15.1339 22.5503H12.461V19.7424C12.4712 19.5612 12.4427 19.3799 12.3776 19.2108C12.3125 19.0416 12.2123 18.8885 12.0837 18.7618C11.8092 18.5159 11.4508 18.3876 11.0843 18.4042C10.9052 18.3947 10.7261 18.4212 10.5572 18.4821C10.3883 18.5431 10.2331 18.6372 10.1005 18.7591C9.97531 18.8878 9.8782 19.0416 9.81544 19.2105C9.75268 19.3794 9.72567 19.5597 9.73614 19.7398V22.5503H8.11734C7.79965 22.5304 7.48629 22.6328 7.24028 22.8369C7.13405 22.9371 7.05098 23.0597 6.997 23.196C6.94302 23.3323 6.91945 23.479 6.92797 23.6256C6.92797 24.3267 7.32443 24.6772 8.11734 24.6772H9.73614V31.0843C9.73614 32.6276 10.0953 33.7975 10.8162 34.5862C11.5371 35.3749 12.6224 35.8271 14.0798 35.9376L14.8086 35.9902C15.2321 36.0519 15.6639 35.9706 16.037 35.7588C16.1722 35.669 16.282 35.5452 16.3555 35.3995C16.4289 35.2538 16.4636 35.0913 16.456 34.928C16.4634 34.796 16.4441 34.6638 16.3994 34.5395C16.3547 34.4152 16.2854 34.3014 16.1957 34.205C15.959 34.007 15.6624 33.8966 15.3551 33.8921Z" fill="#2963A3"/>
<path d="M36.012 16.4971C35.6536 16.4849 35.3034 16.6066 35.0282 16.8389C34.8941 16.9648 34.7895 17.1193 34.7219 17.2913C34.6544 17.4632 34.6257 17.6481 34.6379 17.8327V34.6825C34.6248 34.8652 34.6532 35.0485 34.7208 35.2184C34.7885 35.3883 34.8936 35.5404 35.0282 35.6631C35.307 35.8872 35.656 36.0029 36.012 35.9891C36.365 36.0044 36.7113 35.8884 36.9854 35.6631C37.1161 35.538 37.2178 35.3852 37.2831 35.2156C37.3483 35.046 37.3755 34.864 37.3627 34.6825V17.8327C37.3748 17.6493 37.3473 17.4655 37.2821 17.2939C37.217 17.1224 37.1157 16.9671 36.9854 16.8389C36.7149 16.6055 36.3674 16.4835 36.012 16.4971Z" fill="#2963A3"/>
<path d="M50.5134 33.6992L45.225 28.9826L50.0293 24.5395C50.1685 24.4224 50.2816 24.2768 50.361 24.1123C50.4404 23.9478 50.4844 23.7681 50.49 23.5851C50.4814 23.2479 50.3447 22.9268 50.1083 22.6885C49.8719 22.4501 49.5538 22.3128 49.2199 22.3048C48.8834 22.3266 48.5667 22.4725 48.3298 22.7149L42.1773 28.5199V17.8327C42.1899 17.6493 42.1626 17.4653 42.0974 17.2937C42.0323 17.122 41.9307 16.9668 41.8 16.8389C41.5306 16.6055 41.1839 16.4834 40.8292 16.4971C40.47 16.4848 40.1189 16.6064 39.8428 16.8389C39.7087 16.9648 39.6041 17.1194 39.5365 17.2913C39.469 17.4632 39.4403 17.6482 39.4524 17.8327V34.6588C39.4402 34.8438 39.4689 35.0291 39.5365 35.2015C39.604 35.3738 39.7086 35.5288 39.8428 35.6552C40.1193 35.8868 40.4704 36.0075 40.8292 35.9944C41.1835 36.0089 41.5302 35.8878 41.8 35.6552C41.9308 35.5269 42.0323 35.3712 42.0975 35.1991C42.1627 35.027 42.1899 34.8426 42.1773 34.6588V29.611L48.8972 35.6079C49.1415 35.8527 49.4718 35.9898 49.8159 35.9891C49.9741 35.99 50.1306 35.9563 50.2747 35.8906C50.4189 35.8248 50.5473 35.7284 50.6513 35.6079C50.8846 35.3662 51.0137 35.0411 51.0105 34.7035C51.0098 34.5088 50.9645 34.3168 50.8783 34.1426C50.7921 33.9684 50.6672 33.8166 50.5134 33.6992Z" fill="#2963A3"/>
<path d="M15.3343 13.8207H22.33C23.5218 13.8468 24.6994 13.5558 25.7446 12.9768C26.719 12.4165 27.5076 11.5777 28.0114 10.5659C28.5603 9.43371 28.8325 8.18506 28.8052 6.92466C28.8357 5.65636 28.5634 4.3993 28.0114 3.25972C27.5092 2.24544 26.7203 1.40456 25.7446 0.843599C24.6994 0.264611 23.5218 -0.0264395 22.33 -0.000335969H20.1204C18.9295 -0.0264719 17.7527 0.264595 16.7085 0.843599C15.7316 1.40304 14.9423 2.24434 14.4416 3.25972C13.8888 4.39907 13.6156 5.65615 13.6452 6.92466V10.7789C13.6452 13.0005 14.2074 13.8207 15.3343 13.8207ZM17.3695 3.41747C18.0184 2.61122 18.9354 2.20809 20.1204 2.20809H22.33C23.5168 2.20809 24.4346 2.61297 25.0835 3.42273C25.7325 4.23248 26.056 5.3998 26.0543 6.92466C26.0543 8.46881 25.7351 9.6405 25.0966 10.4397C24.4581 11.239 23.5359 11.6395 22.33 11.6412H16.43C16.43 11.6412 16.3962 8.46793 16.3962 6.92466C16.3962 5.38139 16.7215 4.22986 17.3695 3.41747Z" fill="#2963A3"/>
<path d="M29.6094 23.022C28.5657 22.4413 27.3887 22.1492 26.1974 22.1754H23.9878C22.7959 22.1505 21.6184 22.4425 20.5733 23.022C19.5977 23.5819 18.8087 24.4219 18.3064 25.4355C17.7604 26.5767 17.4927 27.8334 17.5257 29.1004C17.4952 30.3597 17.7629 31.6081 18.3064 32.7417C18.8095 33.7541 19.5983 34.593 20.5733 35.1526C21.6186 35.7312 22.7961 36.0223 23.9878 35.9965H30.9836C32.1131 35.9965 32.6726 35.1763 32.6726 32.9468V29.1004C32.7029 27.8319 32.4297 26.5747 31.8762 25.4355C31.3756 24.4208 30.5862 23.5804 29.6094 23.022ZM29.8879 33.817H23.9878C22.7855 33.817 21.8633 33.4174 21.2213 32.6182C20.5793 31.8189 20.261 30.6463 20.2662 29.1004C20.2662 27.5721 20.5898 26.4048 21.2369 25.5985C21.8841 24.7923 22.8011 24.3874 23.9878 24.3839H26.1974C27.3842 24.3839 28.302 24.7888 28.951 25.5985C29.5999 26.4083 29.9261 27.5756 29.9295 29.1004C29.9295 30.6437 29.8879 33.817 29.8879 33.817Z" fill="#2963A3"/>
</g>
<defs>
<clipPath id="clip0_4492_2245">
<rect width="51" height="36" fill="white"/>
</clipPath>
</defs>
</svg>
